<?xml version="1.0" standalone="no"?>
<!DOCTYPE svg PUBLIC "-//W3C//DTD SVG 20010904//EN"
 "http://www.w3.org/TR/2001/REC-SVG-20010904/DTD/svg10.dtd">
<svg version="1.0" xmlns="http://www.w3.org/2000/svg"
 width="512.000000pt" height="512.000000pt" viewBox="0 0 512.000000 512.000000"
 preserveAspectRatio="xMidYMid meet">
<metadata>
Created by potrace 1.14, written by Peter Selinger 2001-2017
</metadata>
<g transform="translate(0.000000,512.000000) scale(0.100000,-0.100000)"
fill="#000000" stroke="none">
<path d="M855 4680 c-160 -18 -333 -113 -502 -273 -90 -85 -150 -167 -197
-268 -58 -121 -71 -186 -70 -339 0 -152 14 -219 81 -401 l40 -107 -28 -36
c-33 -45 -91 -162 -114 -231 -38 -113 -56 -223 -62 -370 -5 -131 -3 -166 17
-265 93 -475 382 -927 852 -1333 308 -265 576 -438 786 -506 487 -159 1461
-147 1877 23 262 107 679 421 968 728 321 340 517 693 592 1062 58 287 8 621
-126 844 l-52 85 46 136 c65 193 72 230 72 376 0 148 -14 215 -71 334 -109
233 -384 464 -624 526 -75 19 -210 19 -285 -1 -78 -20 -193 -82 -276 -149 -37
-30 -119 -114 -182 -188 l-116 -135 -183 53 c-262 76 -386 95 -658 102 -347 9
-522 -13 -827 -103 -83 -24 -158 -44 -166 -44 -8 0 -60 54 -116 120 -113 131
-177 193 -262 251 -130 88 -273 126 -414 109z m851 -1241 c195 -35 370 -199
429 -403 24 -83 22 -232 -4 -316 -95 -303 -417 -471 -704 -367 -89 32 -156 77
-222 149 -101 109 -149 234 -148 388 1 217 118 408 308 500 117 57 218 71 341
49z m1919 -4 c107 -23 190 -68 271 -149 116 -116 168 -241 167 -406 -2 -499
-593 -746 -936 -392 -108 113 -159 239 -158 395 0 167 50 286 166 403 137 136
307 188 490 149z"/>
<path d="M1746 2979 c-130 -30 -193 -189 -121 -304 105 -169 361 -95 359 104
-1 135 -113 228 -238 200z"/>
<path d="M3235 2957 c-137 -78 -133 -286 7 -358 70 -36 181 -18 229 37 46 52
66 131 50 191 -26 96 -97 153 -191 153 -39 0 -67 -7 -95 -23z"/>
</g>
</svg>
